<svg xmlns="http://www.w3.org/2000/svg" width="696" height="141" fill="none">
  <path fill="#A30000" d="M29.55.437h586.134l-30.189 140.126H.5L29.55.437Z"/>
  <path fill="#000" d="M631.633 32.336 696 74.487l-82.025 42.152 17.658-84.303Z"/>
  <path fill="#fff" fill-rule="evenodd" d="m240.38 52.184-23.351 2.097-14.168 66.574h22.826l14.693-68.67Zm4.723-16.119c0-7.077-5.641-12.843-12.857-12.843-7.346 0-13.381 5.766-13.381 12.843s5.904 12.843 12.988 12.843c7.346 0 13.25-5.766 13.25-12.843ZM93.396 29.512h50.375l-5.772 19.265H112.68l-3.279 15.333h20.596l-3.936 18.61h-20.465l-8.133 38.135H73.98l19.416-91.343Zm80.23 22.017c9.314 0 20.858 1.573 25.843 4.063-1.967 4.718-3.935 12.843-5.116 18.478l-5.116 24.376c-.131.655-.263 1.441-.263 2.359 0 2.358.656 5.504 2.886 7.863l-18.497 14.809c-2.755-1.442-4.722-5.505-5.116-7.995-3.017 3.146-9.708 7.47-17.579 7.47-13.775 0-19.547-8.649-19.547-23.065 0-14.415 5.772-29.355 14.562-38.136 7.74-7.732 16.005-10.222 27.943-10.222Zm-7.084 47.44 6.296-29.617c-.787-.655-1.967-.917-2.754-.917h-.166c-1.746-.005-4.922-.012-8.099 3.67-4.854 5.635-7.74 18.87-7.74 27.258 0 4.587 1.312 6.553 4.46 6.553 2.755 0 7.478-4.718 8.003-6.946Zm115.551-74.436v1.441c0 3.67-.656 9.567-1.968 15.464l-10.757 50.193c-1.049 5.111-1.705 8.518-1.705 10.877 0 3.145 1.18 4.194 4.066 4.194.788 0 1.575-.131 2.493-.393l.656 14.153c-3.28 1.18-8.921 2.097-15.218 2.097-12.987 0-16.398-4.456-16.398-11.532 0-3.408.787-7.47 1.705-11.926l9.839-46.13c.212-1.023.436-2.072.664-3.14 1.466-6.874 3.105-14.562 2.878-21.367l23.745-3.931Zm79.449 10.09c-4.592-3.8-12.594-6.683-23.483-6.683-14.43 0-24.663 4.718-32.927 12.057-14.3 12.843-20.859 33.81-20.859 51.896 0 18.347 11.938 30.535 32.272 30.535 13.381 0 23.613-3.931 30.566-9.305l-6.953-16.25c-6.034 4.587-10.888 6.29-16.791 6.29-6.822 0-12.201-4.324-12.201-13.498 0-13.498 5.248-31.321 11.282-37.48 4.329-4.456 8.265-6.029 13.25-6.029 4.985 0 9.446 1.31 12.988 4.325l12.856-15.858Zm32.17 16.906c14.168 0 25.057 6.946 25.057 23.983 0 17.692-9.839 47.047-41.455 47.047-16.005 0-25.057-8.78-25.057-24.376 0-17.43 9.446-46.654 41.455-46.654Zm-12.462 55.042c9.445 0 13.381-28.438 13.381-33.025s-1.706-6.16-5.117-6.16c-9.445 0-13.381 28.308-13.381 33.025 0 4.194 1.443 6.16 5.117 6.16Zm112.657-41.675c0-7.339-3.805-13.367-17.186-13.367-7.477 0-15.348 2.752-20.596 7.339-.131-2.752-.656-5.111-1.181-7.339l-20.202 3.8.079.629c.233 1.842.445 3.515.445 5.4 0 4.718-.918 9.829-2.361 16.906l-9.052 42.591h22.827l9.576-44.557c2.886-4.456 5.773-6.29 9.446-6.29 2.755 0 3.804 1.179 3.804 3.8 0 .812-.157 1.703-.35 2.794-.056.318-.116.652-.175 1.006l-9.183 43.247h22.827l10.626-49.93c.393-2.097.656-4.063.656-6.029Zm50.389-41.674c6.953 0 11.544.917 16.136 3.538l-8.659 14.285c-1.705-.917-3.542-1.573-6.034-1.573-2.755 0-5.641 1.835-6.297 4.85l-1.837 8.91h14.299l-6.165 14.94H534.85l-9.839 48.228c-1.867 9.327-5.534 17.318-10.18 24.163h-24.026c5.187-5.863 9.464-13.944 11.38-23.639l9.839-48.751h-6.297l3.148-14.94h5.904c.122-2.204.703-5.093 1.206-7.6l.106-.525c4.198-19.527 19.022-21.886 28.205-21.886Z" clip-rule="evenodd"/>
</svg>
